# xmcd
#
# Track frame offsets: 
#        150
#        3168
#        14370
#        26973
#        37743
#        48645
#        59625
#        71043
#        84973
#        96663
#        108993
#        121380
#        132363
#        148013
#        160240
#        174335
#        183828
#        193185
#        205658
#        220078
#
# Disc length: 3092 seconds
#
# Revision: 2
# Processed by: cddbd v1.5.2PL0 Copyright (c) Steve Scherf et al.
# Submitted via: ExactAudioCopy v0.95b4
#
DISCID=1c0c1214
DTITLE=Rufus Thomas - Can't Get Away From This Dog
DYEAR=1991
DGENRE=Blues
TTITLE0=Walking The Dog (Promo For Rufus Thomas)
TTITLE1=Can't Get Away From This Dog
TTITLE2=Forty Four Long
TTITLE3=Strolling Beale No. 1
TTITLE4=Cherry Red Blues
TTITLE5=Walking The Dog
TTITLE6=Carry Me Back To Old Virginny
TTITLE7=Barefootin'
TTITLE8=A Story That's Never Been Told
TTITLE9=Last Clean Shirt
TTITLE10=Show Me The Way To Go Home
TTITLE11=Jump Back
TTITLE12=My Girl
TTITLE13=We're Going To Make It (with Carla Thomas)
TTITLE14=Don't Mess Up A Good Thing (with Carla Thomas)
TTITLE15=I Want To Hold You
TTITLE16=Can Your Monkey Do The Dog
TTITLE17=Stop Kicking My Dog Around
TTITLE18=Wang Dang Doodle
TTITLE19=Reconsider Baby (with Carla Thomas)
EXTD=
EXTT0=
EXTT1=
EXTT2=
EXTT3=
EXTT4=
EXTT5=
EXTT6=
EXTT7=
EXTT8=
EXTT9=
EXTT10=
EXTT11=
EXTT12=
EXTT13=
EXTT14=
EXTT15=
EXTT16=
EXTT17=
EXTT18=
EXTT19=
PLAYORDER=
